<svg xmlns="http://www.w3.org/2000/svg" xmlns:xlink="http://www.w3.org/1999/xlink" viewBox="0 0 800 300"><defs><style>.cls-1{fill:#fff;}.cls-2{fill:url(#Degradado_sin_nombre_179);}</style><linearGradient id="Degradado_sin_nombre_179" x1="0.5" y1="150.5" x2="359.34" y2="150.5" gradientUnits="userSpaceOnUse"><stop offset="0" stop-color="#dc2c28"/><stop offset="0.15" stop-color="#de3532"/><stop offset="0.69" stop-color="#e45150"/><stop offset="1" stop-color="#e65c5b"/></linearGradient></defs><title>logo-noche_1</title><g id="Capa_2" data-name="Capa 2"><g id="Capa_3" data-name="Capa 3"><g id="Capa_1-2" data-name="Capa 1"><path class="cls-1" d="M369.25,189.9l13.38-79a6.88,6.88,0,0,1,2.41-4.18,6.54,6.54,0,0,1,4.37-1.72h70.26a4.48,4.48,0,0,1,3.75,1.78,5.2,5.2,0,0,1,1,4.25l-1,6a7.1,7.1,0,0,1-2.39,4.22,6.44,6.44,0,0,1-4.35,1.75H403.56l-3.78,22.34H443a4.48,4.48,0,0,1,3.75,1.78,5.14,5.14,0,0,1,1,4.19l-1,6a7.13,7.13,0,0,1-2.39,4.22,6.45,6.45,0,0,1-4.35,1.74H396.73l-4.51,26.66a7.25,7.25,0,0,1-2.41,4.35,6.38,6.38,0,0,1-4.35,1.75H374a4.6,4.6,0,0,1-3.79-1.75A5.23,5.23,0,0,1,369.25,189.9Z" transform="translate(-0.5 -0.5)"/><path class="cls-1" d="M510.9,142.55l-9.32-.38q-8.24,0-17.32,9.39l-6.86,40.56a4.58,4.58,0,0,1-1.54,2.8A4.21,4.21,0,0,1,473,196H459.38a3,3,0,0,1-2.5-1.08,3.38,3.38,0,0,1-.56-2.8l10.45-61.76a4.71,4.71,0,0,1,1.54-2.82,4.19,4.19,0,0,1,2.84-1.11H484.8a3,3,0,0,1,2.5,1.11,3.49,3.49,0,0,1,.55,2.82l-.67,4a62.74,62.74,0,0,1,13.15-7,45.39,45.39,0,0,1,15.46-2.25,3,3,0,0,1,2.52,1.11,3.32,3.32,0,0,1,.6,2.76l-1.63,9.65a4.58,4.58,0,0,1-1.54,2.79,4.29,4.29,0,0,1-2.89,1.08Z" transform="translate(-0.5 -0.5)"/><path class="cls-1" d="M530.31,113.16l.37-2.16a8.91,8.91,0,0,1,2.76-5.33,7.91,7.91,0,0,1,5.48-2h7.56a5.79,5.79,0,0,1,4.79,1.94q1.56,1.94,1,5.36l-.37,2.16a8.91,8.91,0,0,1-2.76,5.33,7.91,7.91,0,0,1-5.48,2h-7.56a5.73,5.73,0,0,1-4.78-2A6.5,6.5,0,0,1,530.31,113.16Zm-13.12,79,10.2-60.23a4.56,4.56,0,0,1,1.53-2.8,4.24,4.24,0,0,1,2.84-1.08h13.65a2.94,2.94,0,0,1,2.49,1.11,3.42,3.42,0,0,1,.57,2.77l-10.2,60.23a4.53,4.53,0,0,1-1.54,2.8A4.19,4.19,0,0,1,533.9,196H520.25a3,3,0,0,1-2.5-1.08A3.42,3.42,0,0,1,517.19,192.12Z" transform="translate(-0.5 -0.5)"/><path class="cls-1" d="M568.46,111a7.13,7.13,0,0,1,2.42-4.25,6.52,6.52,0,0,1,4.39-1.78h49.54q18.21,0,25,10.92,3.79,6,2.21,15.39t-11,16.35q10.59,6.54,8.26,20.31t-12.9,20.92A42.1,42.1,0,0,1,612.26,196h-52.4a4.6,4.6,0,0,1-3.79-1.75,5.06,5.06,0,0,1-1-4.22Zm18,29.33h32.6a9.62,9.62,0,0,0,6.55-2.38,11,11,0,0,0,3.45-6.67c.48-2.85.09-5.09-1.18-6.69a6.9,6.9,0,0,0-5.75-2.42h-32.6Zm-6.53,38.53H614.8a10.51,10.51,0,0,0,7.68-2.92,14.12,14.12,0,0,0,3.86-8q.85-5.07-1.15-8c-1.34-1.94-3.57-2.92-6.7-2.92H583.64Z" transform="translate(-0.5 -0.5)"/><path class="cls-1" d="M660.9,191.43q-7.08-5.85-5.28-16.51a23.06,23.06,0,0,1,10.85-16.37q9-5.72,21.77-5.72h20.17q1.26-7.43-1.23-10.34t-10-2.92q-7.46,0-11.13,3.84a11,11,0,0,1-8.05,3.84H669a3,3,0,0,1-2.53-1.11,3.37,3.37,0,0,1-.59-2.77q3.07-18.21,36.29-18.21,14.5,0,22.13,6.76t5.24,20.91l-6.65,39.29a4.69,4.69,0,0,1-1.51,2.8,4.2,4.2,0,0,1-2.87,1.08H706.71a2.94,2.94,0,0,1-2.49-1.11,3.4,3.4,0,0,1-.57-2.77l.33-2a41.43,41.43,0,0,1-23.42,7.14Q668,197.27,660.9,191.43Zm19.27-22a8.63,8.63,0,0,0-3.42,5.59,6.15,6.15,0,0,0,1.61,5.65q2.17,2.22,6.87,2.22,9.39,0,19.07-5.72l1.67-9.9h-18.7A11.36,11.36,0,0,0,680.17,169.4Z" transform="translate(-0.5 -0.5)"/><path class="cls-1" d="M792.42,142.55l-9.32-.38q-8.24,0-17.31,9.39l-6.87,40.56a4.58,4.58,0,0,1-1.54,2.8,4.21,4.21,0,0,1-2.83,1.08H740.9a3,3,0,0,1-2.5-1.08,3.38,3.38,0,0,1-.56-2.8l10.45-61.76a4.71,4.71,0,0,1,1.54-2.82,4.19,4.19,0,0,1,2.84-1.11h13.65a3,3,0,0,1,2.5,1.11,3.49,3.49,0,0,1,.55,2.82l-.67,4a62.74,62.74,0,0,1,13.15-7,45.39,45.39,0,0,1,15.46-2.25,3,3,0,0,1,2.52,1.11,3.32,3.32,0,0,1,.6,2.76l-1.63,9.65a4.58,4.58,0,0,1-1.54,2.79,4.29,4.29,0,0,1-2.89,1.08Z" transform="translate(-0.5 -0.5)"/><path class="cls-2" d="M307.58,144.81C369.38,122.2,385.52,21,301.87,3.37,286.28-.81,272.63.92,256.28.56c-48.12,0-97.13.37-144.9.09C95,3.92,72.85,31.77,97.23,48.84c2.64,1.73,4.64,1.56,8.94,1.51l128.89.73,32.58.19c10.87-1.27,20.57,2.18,24.35,16,3.79,16-13.45,31-23.5,31.69l-95.28.79-118,1c-20.43,1-45.6-5.89-54.11,23.32-2.12,8.68,1.55,22.28,13.37,25.58l179.55,1c27.42-1.59,33.12,35.13,1.81,48.05-3.85,1.2-1.55.44-5.45.68l-79.71.94c-28.4,1.08-37.2,25.11-38.38,39.57L61.58,300.5c39.54.08,89.55-1.05,132.9-1.37,45.62.66,98.78,1.21,130.79-46.35C352.6,214.15,349.55,164.33,307.58,144.81Z" transform="translate(-0.5 -0.5)"/></g></g></g></svg>