<svg xmlns="http://www.w3.org/2000/svg" xmlns:xlink="http://www.w3.org/1999/xlink" viewBox="0 0 300 300"><defs><style>.cls-1{fill:url(#Degradado_sin_nombre_179);}.cls-2{fill:url(#Degradado_sin_nombre_179-2);}.cls-3{fill:url(#Degradado_sin_nombre_179-3);}.cls-4{fill:url(#Degradado_sin_nombre_179-4);}.cls-5{fill:url(#Degradado_sin_nombre_179-5);}.cls-6{fill:url(#Degradado_sin_nombre_179-6);}.cls-7{fill:url(#Degradado_sin_nombre_179-7);}</style><linearGradient id="Degradado_sin_nombre_179" x1="17.77" y1="107.06" x2="282.23" y2="107.06" gradientUnits="userSpaceOnUse"><stop offset="0" stop-color="#dc2c28"/><stop offset="0.15" stop-color="#de3532"/><stop offset="0.69" stop-color="#e45150"/><stop offset="1" stop-color="#e65c5b"/></linearGradient><linearGradient id="Degradado_sin_nombre_179-2" x1="0" y1="266.79" x2="66.3" y2="266.79" xlink:href="#Degradado_sin_nombre_179"/><linearGradient id="Degradado_sin_nombre_179-3" x1="60.57" y1="274.06" x2="104.21" y2="274.06" xlink:href="#Degradado_sin_nombre_179"/><linearGradient id="Degradado_sin_nombre_179-4" x1="102.91" y1="266.33" x2="127.45" y2="266.33" xlink:href="#Degradado_sin_nombre_179"/><linearGradient id="Degradado_sin_nombre_179-5" x1="129.25" y1="266.79" x2="197.07" y2="266.79" xlink:href="#Degradado_sin_nombre_179"/><linearGradient id="Degradado_sin_nombre_179-6" x1="198.98" y1="274.53" x2="251.02" y2="274.53" xlink:href="#Degradado_sin_nombre_179"/><linearGradient id="Degradado_sin_nombre_179-7" x1="256.37" y1="274.06" x2="300" y2="274.06" xlink:href="#Degradado_sin_nombre_179"/></defs><title>logo-pantalla-pequeña</title><g id="Capa_2" data-name="Capa 2"><g id="Capa_3" data-name="Capa 3"><g id="Capa_1-2" data-name="Capa 1"><path class="cls-1" d="M244.08,103C289.62,87,301.52,15.07,239.88,2.54c-11.5-3-21.55-1.74-33.6-2-35.46,0-71.59.27-106.79.07-12,2.32-28.39,22.1-10.43,34.23,2,1.23,3.42,1.11,6.59,1.08l95,.52,24,.13c8-.91,15.16,1.55,17.94,11.39,2.79,11.33-9.91,22-17.31,22.51L145.06,71l-87,.69c-15,.68-33.61-4.19-39.88,16.57-1.56,6.17,1.14,15.82,9.86,18.17l132.32.69c20.21-1.13,24.41,25,1.33,34.14-2.83.85-1.13.31-4,.49L99,142.44c-20.94.77-27.42,17.84-28.29,28.11-2.07,11.29-7.46,40.82-7.87,43.07,29.14.06,66-.74,97.94-1,33.62.47,72.8.86,96.39-32.93C277.26,152.28,275,116.89,244.08,103Z" transform="translate(0 -0.5)"/><path class="cls-2" d="M.07,295.18l9.31-56.91a5,5,0,0,1,1.68-3,4.48,4.48,0,0,1,3-1.23H63a3.07,3.07,0,0,1,2.61,1.28,3.82,3.82,0,0,1,.66,3.06l-.7,4.3a5.18,5.18,0,0,1-1.66,3,4.39,4.39,0,0,1-3,1.25H23.93L21.3,263H51.35A3.1,3.1,0,0,1,54,264.32a3.81,3.81,0,0,1,.67,3l-.71,4.34a5.15,5.15,0,0,1-1.66,3,4.38,4.38,0,0,1-3,1.26h-30l-3.14,19.2a5.26,5.26,0,0,1-1.68,3.13,4.39,4.39,0,0,1-3,1.25h-8a3.17,3.17,0,0,1-2.63-1.25A3.86,3.86,0,0,1,.07,295.18Z" transform="translate(0 -0.5)"/><path class="cls-3" d="M98.59,261.08l-6.49-.28q-5.71,0-12,6.77l-4.77,29.2a3.36,3.36,0,0,1-1.07,2,2.91,2.91,0,0,1-2,.77H62.76a2.06,2.06,0,0,1-1.74-.77,2.49,2.49,0,0,1-.39-2L67.9,252.3a3.39,3.39,0,0,1,1.07-2,2.82,2.82,0,0,1,2-.8h9.49a2,2,0,0,1,1.73.8,2.61,2.61,0,0,1,.39,2l-.47,2.88a43.38,43.38,0,0,1,9.15-5A30.33,30.33,0,0,1,102,248.55a2.07,2.07,0,0,1,1.75.8,2.48,2.48,0,0,1,.42,2l-1.14,7a3.31,3.31,0,0,1-1.07,2,2.9,2.9,0,0,1-2,.78Z" transform="translate(0 -0.5)"/><path class="cls-4" d="M112.09,239.91l.25-1.55a6.53,6.53,0,0,1,1.92-3.84,5.42,5.42,0,0,1,3.82-1.42h5.25a4,4,0,0,1,3.33,1.4,4.82,4.82,0,0,1,.69,3.86l-.26,1.55a6.42,6.42,0,0,1-1.92,3.84,5.37,5.37,0,0,1-3.81,1.42H116.1a3.9,3.9,0,0,1-3.32-1.42A4.8,4.8,0,0,1,112.09,239.91ZM103,296.77l7.09-43.37a3.36,3.36,0,0,1,1.07-2,2.88,2.88,0,0,1,2-.78h9.49a2,2,0,0,1,1.73.8,2.55,2.55,0,0,1,.4,2l-7.09,43.37a3.41,3.41,0,0,1-1.07,2,2.92,2.92,0,0,1-2,.77h-9.49a2.08,2.08,0,0,1-1.74-.77A2.57,2.57,0,0,1,103,296.77Z" transform="translate(0 -0.5)"/><path class="cls-5" d="M138.62,238.36a5.11,5.11,0,0,1,1.69-3.06,4.38,4.38,0,0,1,3-1.28h34.46q12.67,0,17.4,7.86,2.64,4.34,1.54,11.08t-7.65,11.77q7.36,4.71,5.75,14.63t-9,15.06a28.57,28.57,0,0,1-16.8,5.14H132.64a3.21,3.21,0,0,1-2.64-1.25,3.78,3.78,0,0,1-.69-3Zm12.52,21.12h22.68a6.52,6.52,0,0,0,4.56-1.72,7.92,7.92,0,0,0,2.39-4.8,6.09,6.09,0,0,0-.82-4.82,4.72,4.72,0,0,0-4-1.74H153.28Zm-4.53,27.74h24.24a7.2,7.2,0,0,0,5.34-2.1,10.28,10.28,0,0,0,2.68-5.76,8,8,0,0,0-.79-5.76c-.93-1.4-2.49-2.1-4.66-2.1H149.18Z" transform="translate(0 -0.5)"/><path class="cls-6" d="M202.91,296.27q-4.92-4.2-3.67-11.88a16.67,16.67,0,0,1,7.54-11.79,27,27,0,0,1,15.15-4.12h14c.58-3.56.29-6.05-.86-7.45s-3.47-2.1-6.93-2.1-6,.92-7.74,2.76a7.52,7.52,0,0,1-5.6,2.77h-6.31a2.09,2.09,0,0,1-1.76-.8,2.47,2.47,0,0,1-.42-2q2.15-13.11,25.25-13.12,10.08,0,15.39,4.87t3.64,15.06L246,296.77a3.34,3.34,0,0,1-1.05,2,2.87,2.87,0,0,1-2,.77h-8.18a2,2,0,0,1-1.73-.8,2.54,2.54,0,0,1-.4-2l.24-1.41a28.13,28.13,0,0,1-16.29,5.14C210.76,300.48,206.2,299.08,202.91,296.27Zm13.4-15.86a6.27,6.27,0,0,0-2.37,4,4.52,4.52,0,0,0,1.11,4.07c1,1.07,2.61,1.6,4.78,1.6A25.36,25.36,0,0,0,233.09,286l1.17-7.13h-13A7.78,7.78,0,0,0,216.31,280.41Z" transform="translate(0 -0.5)"/><path class="cls-7" d="M294.38,261.08l-6.48-.28q-5.73,0-12,6.77l-4.78,29.2a3.31,3.31,0,0,1-1.07,2,2.91,2.91,0,0,1-2,.77h-9.49a2.07,2.07,0,0,1-1.74-.77,2.49,2.49,0,0,1-.39-2l7.27-44.47a3.39,3.39,0,0,1,1.07-2,2.82,2.82,0,0,1,2-.8h9.49a2,2,0,0,1,1.73.8,2.53,2.53,0,0,1,.39,2l-.47,2.88a43.38,43.38,0,0,1,9.15-5,30.33,30.33,0,0,1,10.75-1.63,2.1,2.1,0,0,1,1.76.8,2.52,2.52,0,0,1,.41,2l-1.13,7a3.36,3.36,0,0,1-1.07,2,2.93,2.93,0,0,1-2,.78Z" transform="translate(0 -0.5)"/></g></g></g></svg>