<svg xmlns="http://www.w3.org/2000/svg" xmlns:xlink="http://www.w3.org/1999/xlink" viewBox="0 0 800 300"><defs><style>.cls-1{fill:url(#Degradado_sin_nombre_179);}.cls-2{fill:url(#Degradado_sin_nombre_179-2);}.cls-3{fill:url(#Degradado_sin_nombre_179-3);}.cls-4{fill:url(#Degradado_sin_nombre_179-4);}.cls-5{fill:url(#Degradado_sin_nombre_179-5);}.cls-6{fill:url(#Degradado_sin_nombre_179-6);}.cls-7{fill:url(#Degradado_sin_nombre_179-7);}</style><linearGradient id="Degradado_sin_nombre_179" x1="0.5" y1="150.5" x2="374.3" y2="150.5" gradientUnits="userSpaceOnUse"><stop offset="0" stop-color="#dc2c28"/><stop offset="0.15" stop-color="#de3532"/><stop offset="0.69" stop-color="#e45150"/><stop offset="1" stop-color="#e65c5b"/></linearGradient><linearGradient id="Degradado_sin_nombre_179-2" x1="376.45" y1="150.48" x2="470.17" y2="150.48" xlink:href="#Degradado_sin_nombre_179"/><linearGradient id="Degradado_sin_nombre_179-3" x1="462.07" y1="160.71" x2="523.75" y2="160.71" xlink:href="#Degradado_sin_nombre_179"/><linearGradient id="Degradado_sin_nombre_179-4" x1="521.92" y1="149.84" x2="556.61" y2="149.84" xlink:href="#Degradado_sin_nombre_179"/><linearGradient id="Degradado_sin_nombre_179-5" x1="559.14" y1="150.48" x2="655.01" y2="150.48" xlink:href="#Degradado_sin_nombre_179"/><linearGradient id="Degradado_sin_nombre_179-6" x1="657.71" y1="161.37" x2="731.26" y2="161.37" xlink:href="#Degradado_sin_nombre_179"/><linearGradient id="Degradado_sin_nombre_179-7" x1="738.82" y1="160.71" x2="800.5" y2="160.71" xlink:href="#Degradado_sin_nombre_179"/></defs><title>logoFrom</title><g id="Capa_2" data-name="Capa 2"><g id="Capa_3" data-name="Capa 3"><g id="Capa_1-2" data-name="Capa 1"><path class="cls-1" d="M320.39,144.81C384.76,122.2,401.57,21,314.44,3.37,298.2-.81,284,.92,267,.56,216.82.52,165.77.93,116,.65,99,3.92,75.87,31.77,101.27,48.84c2.75,1.73,4.83,1.56,9.31,1.51l134.27.74,33.93.18c11.33-1.27,21.43,2.18,25.36,16,3.95,16-14,31-24.47,31.69l-99.26.79-122.95,1c-21.28,1-47.5-5.89-56.37,23.32-2.2,8.68,1.61,22.28,13.93,25.58l187,1c28.56-1.59,34.5,35.13,1.88,48.05-4,1.2-1.61.44-5.67.68l-83,.94c-29.59,1.08-38.75,25.11-40,39.57-2.92,15.89-10.54,57.46-11.12,60.63,41.19.08,93.28-1.05,138.44-1.37,47.52.66,102.91,1.21,136.25-46.35C367.29,214.15,364.1,164.33,320.39,144.81Z" transform="translate(-0.5 -0.5)"/><path class="cls-2" d="M376.55,190.44l13.15-80.1a7.08,7.08,0,0,1,2.38-4.25,6.35,6.35,0,0,1,4.3-1.74h69.07a4.36,4.36,0,0,1,3.68,1.8,5.41,5.41,0,0,1,.94,4.31l-1,6.05a7.22,7.22,0,0,1-2.35,4.28,6.2,6.2,0,0,1-4.27,1.77H410.28l-3.72,22.65H449a4.36,4.36,0,0,1,3.69,1.8,5.34,5.34,0,0,1,.95,4.25l-1,6.11a7.3,7.3,0,0,1-2.35,4.28,6.21,6.21,0,0,1-4.28,1.77H403.57l-4.43,27a7.45,7.45,0,0,1-2.37,4.41,6.23,6.23,0,0,1-4.28,1.77H381.23a4.47,4.47,0,0,1-3.72-1.77A5.4,5.4,0,0,1,376.55,190.44Z" transform="translate(-0.5 -0.5)"/><path class="cls-3" d="M515.8,142.44l-9.16-.38q-8.08,0-17,9.52l-6.75,41.11a4.66,4.66,0,0,1-1.51,2.83,4.09,4.09,0,0,1-2.79,1.1H465.15a2.91,2.91,0,0,1-2.45-1.1,3.52,3.52,0,0,1-.56-2.83l10.28-62.6a4.81,4.81,0,0,1,1.52-2.86,4,4,0,0,1,2.79-1.13h13.42a2.86,2.86,0,0,1,2.45,1.13,3.61,3.61,0,0,1,.55,2.86l-.67,4a61.61,61.61,0,0,1,12.93-7q6-2.3,15.2-2.29a2.93,2.93,0,0,1,2.48,1.13,3.47,3.47,0,0,1,.59,2.8l-1.6,9.78a4.7,4.7,0,0,1-1.52,2.83,4.13,4.13,0,0,1-2.84,1.09Z" transform="translate(-0.5 -0.5)"/><path class="cls-4" d="M534.89,112.65l.36-2.19a9.07,9.07,0,0,1,2.71-5.4,7.63,7.63,0,0,1,5.39-2h7.43a5.63,5.63,0,0,1,4.71,2q1.53,2,1,5.43l-.36,2.19a9.07,9.07,0,0,1-2.71,5.41,7.63,7.63,0,0,1-5.39,2h-7.43a5.55,5.55,0,0,1-4.7-2A6.75,6.75,0,0,1,534.89,112.65Zm-12.9,80,10-61.06a4.72,4.72,0,0,1,1.51-2.83,4.08,4.08,0,0,1,2.79-1.09h13.42a2.86,2.86,0,0,1,2.45,1.12,3.59,3.59,0,0,1,.56,2.8l-10,61.06a4.66,4.66,0,0,1-1.51,2.83,4.08,4.08,0,0,1-2.78,1.1H525a2.91,2.91,0,0,1-2.46-1.1A3.52,3.52,0,0,1,522,192.69Z" transform="translate(-0.5 -0.5)"/><path class="cls-5" d="M572.39,110.46a7.31,7.31,0,0,1,2.38-4.31,6.28,6.28,0,0,1,4.31-1.8h48.7q17.91,0,24.6,11.07,3.74,6.1,2.17,15.6t-10.8,16.57q10.41,6.63,8.12,20.59t-12.68,21.2a40.52,40.52,0,0,1-23.74,7.24H563.93a4.5,4.5,0,0,1-3.72-1.77,5.25,5.25,0,0,1-1-4.28Zm17.7,29.73h32a9.35,9.35,0,0,0,6.45-2.41A11.18,11.18,0,0,0,632,131c.48-2.89.09-5.16-1.16-6.79a6.67,6.67,0,0,0-5.65-2.44h-32Zm-6.41,39.05h34.26a10.17,10.17,0,0,0,7.56-3,14.5,14.5,0,0,0,3.79-8.1c.56-3.43.18-6.14-1.13-8.11s-3.51-3-6.58-3H587.31Z" transform="translate(-0.5 -0.5)"/><path class="cls-6" d="M663.27,192q-7-5.91-5.19-16.72a23.43,23.43,0,0,1,10.66-16.6q8.88-5.81,21.4-5.8H710q1.24-7.52-1.21-10.48t-9.79-3q-7.34,0-10.94,3.89c-2.4,2.6-5,3.89-7.92,3.89h-8.92a2.93,2.93,0,0,1-2.48-1.12,3.45,3.45,0,0,1-.59-2.8q3-18.47,35.68-18.47,14.25,0,21.75,6.85t5.15,21.2l-6.54,39.83a4.73,4.73,0,0,1-1.48,2.83,4.05,4.05,0,0,1-2.82,1.1H708.3a2.86,2.86,0,0,1-2.45-1.13,3.54,3.54,0,0,1-.56-2.8l.33-2a39.86,39.86,0,0,1-23,7.23Q670.23,197.9,663.27,192Zm18.94-22.32a8.76,8.76,0,0,0-3.36,5.66,6.36,6.36,0,0,0,1.58,5.73q2.15,2.25,6.76,2.25,9.22,0,18.74-5.79l1.65-10h-18.4A10.92,10.92,0,0,0,682.21,169.66Z" transform="translate(-0.5 -0.5)"/><path class="cls-7" d="M792.55,142.44l-9.16-.38q-8.08,0-17,9.52l-6.75,41.11a4.66,4.66,0,0,1-1.51,2.83,4.08,4.08,0,0,1-2.78,1.1H741.91a2.91,2.91,0,0,1-2.46-1.1,3.52,3.52,0,0,1-.55-2.83l10.27-62.6a4.81,4.81,0,0,1,1.52-2.86,4,4,0,0,1,2.79-1.13H766.9a2.85,2.85,0,0,1,2.45,1.13,3.61,3.61,0,0,1,.55,2.86l-.66,4a61.31,61.31,0,0,1,12.92-7,43.21,43.21,0,0,1,15.2-2.29,3,3,0,0,1,2.49,1.13,3.47,3.47,0,0,1,.58,2.8l-1.6,9.78a4.74,4.74,0,0,1-1.51,2.83,4.15,4.15,0,0,1-2.85,1.09Z" transform="translate(-0.5 -0.5)"/></g></g></g></svg>